<?xml version="1.0" encoding="UTF-8"?> <svg xmlns="http://www.w3.org/2000/svg" viewBox="0 0 400 350"> <defs> <style>.cls-1{fill:none;}.cls-2{fill:#fff;}.cls-3{fill:#dedfe7;}.cls-4{opacity:0.3;}.cls-5{fill:#131a3f;}.cls-6{fill:#b5b9c6;}.cls-7{fill:#294de1;}.cls-8{fill:#5c6886;}.cls-9{fill:#83cafe;}.cls-10{fill:#fafafa;}.cls-11{fill:#ffbf9d;}.cls-12{opacity:0.6;}.cls-13{fill:#ff9a6c;}.cls-14{fill:#f7d200;}</style> </defs> <title>Ресурс 48</title> <g id="Слой_2" data-name="Слой 2"> <g id="Layer_1" data-name="Layer 1"> <rect class="cls-1" width="400" height="350"></rect> <rect class="cls-2" x="90.5" y="65.03" width="77.37" height="51.8"></rect> <path class="cls-3" d="M167.86,116.83s0-.32,0-.94,0-1.54,0-2.73c0-2.4,0-5.92,0-10.42,0-9,0-21.94-.06-37.71l.11.11-77.36,0h0l.14-.14c0,18.45,0,36,0,51.8l-.12-.12,55.73.06,15.93,0,4.23,0h-4.18l-15.89,0L90.5,117h-.13v-.13c0-15.8,0-33.35,0-51.8v-.14h.14l77.36,0H168V65c0,15.8,0,28.76-.05,37.78,0,4.49,0,8,0,10.39,0,1.19,0,2.1,0,2.71S167.86,116.83,167.86,116.83Z"></path> <path class="cls-3" d="M90.5,69.65c0-.07,17.3-.14,38.65-.14s38.65.07,38.65.14-17.3.14-38.65.14S90.5,69.73,90.5,69.65Z"></path> <g class="cls-4"> <path class="cls-3" d="M93.55,67.32a.62.62,0,1,1-.62-.62A.62.62,0,0,1,93.55,67.32Z"></path> </g> <g class="cls-4"> <circle class="cls-3" cx="95.05" cy="67.32" r="0.62"></circle> </g> <g class="cls-4"> <path class="cls-3" d="M97.77,67.32a.62.62,0,1,1-.62-.62A.62.62,0,0,1,97.77,67.32Z"></path> </g> <rect class="cls-3" x="97.15" y="75.06" width="20.64" height="20.64"></rect> <path class="cls-3" d="M157.25,80.89c0,.08-8,.14-18,.14s-18-.06-18-.14,8-.14,18-.14S157.25,80.81,157.25,80.89Z"></path> <path class="cls-3" d="M157.25,84.72c0,.08-8,.14-18,.14s-18-.06-18-.14,8-.14,18-.14S157.25,84.65,157.25,84.72Z"></path> <path class="cls-3" d="M157.25,88.56c0,.08-8,.14-18,.14s-18-.06-18-.14,8-.14,18-.14S157.25,88.48,157.25,88.56Z"></path> <path class="cls-3" d="M142.55,92.39a4.74,4.74,0,0,1-.84.06l-2.27,0c-1.92,0-4.58,0-7.51,0s-5.59,0-7.52,0l-2.27,0a4.74,4.74,0,0,1-.84-.06,5.67,5.67,0,0,1,.84,0l2.27,0c1.93,0,4.58,0,7.52,0s5.59,0,7.51,0l2.27,0A5.67,5.67,0,0,1,142.55,92.39Z"></path> <rect class="cls-3" x="98.44" y="102.65" width="9.7" height="9.7"></rect> <rect class="cls-3" x="116.03" y="102.65" width="9.7" height="9.7"></rect> <rect class="cls-3" x="133.62" y="102.65" width="9.7" height="9.7"></rect> <rect class="cls-3" x="151.21" y="102.65" width="9.7" height="9.7"></rect> <path class="cls-5" d="M340.2,268.11c0,.09-61.66.16-137.7.16s-137.7-.07-137.7-.16,61.64-.16,137.7-.16S340.2,268,340.2,268.11Z"></path> <rect class="cls-3" x="230.32" y="76.76" width="86.58" height="70.54"></rect> <rect class="cls-6" x="224.17" y="81.25" width="86.58" height="70.54"></rect> <rect class="cls-2" x="215.68" y="86.16" width="88.89" height="72.42"></rect> <path class="cls-5" d="M304.57,158.58s0-.46,0-1.34,0-2.18,0-3.87c0-3.38,0-8.34,0-14.67,0-12.64,0-30.73-.07-52.54l.13.13-88.88,0h0l.16-.16c0,26.19,0,50.91,0,72.42l-.15-.15,64.24.07,18.17,0,4.82,0h0l-4.79,0-18.14,0-64.33.07h-.14v-.14c0-21.51,0-46.23,0-72.42V86h.17l88.88,0h.14v.14c0,21.85,0,40-.07,52.62,0,6.32,0,11.27,0,14.65,0,1.68,0,3,0,3.84S304.57,158.58,304.57,158.58Z"></path> <path class="cls-7" d="M226.52,96.62l-1,.35,1,.35v.36l-1.37-.52v-.37l1.37-.52Z"></path> <path class="cls-7" d="M228.77,96v2h-.47v-.83h-.91V98h-.46V96h.46v.79h.91V96Z"></path> <path class="cls-7" d="M229.66,96.35H229V96h1.74v.38h-.64V98h-.46Z"></path> <path class="cls-7" d="M232.84,98V96.77l-.59,1H232l-.58-1V98H231V96h.39l.75,1.25.74-1.25h.38v2Z"></path> <path class="cls-7" d="M233.75,96h.46V97.6h1V98h-1.47Z"></path> <path class="cls-7" d="M236.78,96.79v.37l-1.37.52v-.36l1-.35-1-.35v-.35Z"></path> <path class="cls-7" d="M225.71,151.54l-1,.35,1,.35v.35l-1.37-.51v-.38l1.37-.52Z"></path> <path class="cls-7" d="M226.73,150.48h.4l-.95,2.7h-.39Z"></path> <path class="cls-7" d="M229.08,150.89v2h-.46v-.82h-.92v.82h-.46v-2h.46v.79h.92v-.79Z"></path> <path class="cls-7" d="M230,151.26h-.64v-.37h1.75v.37h-.65v1.63H230Z"></path> <path class="cls-7" d="M233.15,152.89v-1.2l-.59,1h-.21l-.59-1v1.17h-.44v-2h.39l.75,1.24.74-1.24h.38v2Z"></path> <path class="cls-7" d="M234.06,150.89h.46v1.62h1v.38h-1.47Z"></path> <path class="cls-7" d="M237.09,151.7v.38l-1.36.51v-.35l1-.35-1-.35v-.36Z"></path> <path d="M232.81,102.11l-1,.4,1,.39v.24l-1.28-.51v-.25l1.28-.5Z"></path> <path d="M235,101.5v2h-.29v-.89h-1.15v.89h-.29v-2h.29v.87h1.15v-.87Z"></path> <path d="M237.08,103.26v.25h-1.45v-2H237v.25h-1.12v.62h1v.24h-1v.65Z"></path> <path d="M238.83,103h-1.07l-.22.5h-.3l.91-2h.29l.91,2h-.3Zm-.11-.23-.43-1-.43,1Z"></path> <path d="M239.64,101.5h.85a1,1,0,1,1,0,2h-.85Zm.83,1.76a.76.76,0,1,0,0-1.51h-.54v1.51Z"></path> <path d="M243.18,102.38v.25l-1.28.51v-.24l1-.39-1-.4v-.23Z"></path> <path d="M232.81,109l-1,.39,1,.39V110l-1.28-.51v-.24l1.28-.51Z"></path> <path d="M233.7,108.63H233v-.25h1.66v.25H234v1.75h-.29Z"></path> <path d="M235,108.38h.29v2H235Z"></path> <path d="M236.27,108.63h-.69v-.25h1.66v.25h-.69v1.75h-.28Z"></path> <path d="M237.55,108.38h.29v1.75h1.09v.25h-1.38Z"></path> <path d="M240.71,110.13v.25h-1.46v-2h1.42v.25h-1.13v.61h1v.25h-1v.64Z"></path> <path d="M242.35,109.26v.24l-1.29.51v-.24l1-.39-1-.39v-.24Z"></path> <path d="M243.61,108.38h.28v1.75H245v.25h-1.37Z"></path> <path d="M245.11,109.62a.79.79,0,1,1,.79.78A.75.75,0,0,1,245.11,109.62Zm1.3,0a.51.51,0,1,0-.51.54A.5.5,0,0,0,246.41,109.62Z"></path> <path d="M247.88,108.85v.27h-.06a.46.46,0,0,0-.48.52v.75h-.27v-1.52h.26v.26A.58.58,0,0,1,247.88,108.85Z"></path> <path d="M249.57,109.71h-1.23a.52.52,0,0,0,.55.45.57.57,0,0,0,.44-.18l.15.17a.78.78,0,0,1-.6.25.75.75,0,0,1-.81-.78.74.74,0,0,1,.76-.77.73.73,0,0,1,.75.78A.22.22,0,0,1,249.57,109.71Zm-1.23-.19h1a.48.48,0,0,0-.49-.44A.47.47,0,0,0,248.34,109.52Z"></path> <path d="M252.48,109.51v.87h-.27v-.84c0-.3-.15-.44-.4-.44s-.45.17-.45.5v.78h-.28v-.84c0-.3-.14-.44-.39-.44a.44.44,0,0,0-.46.5v.78H250v-1.52h.26v.23a.61.61,0,0,1,.53-.24.55.55,0,0,1,.52.28.7.7,0,0,1,.59-.28A.58.58,0,0,1,252.48,109.51Z"></path> <path d="M253.71,108.39a.18.18,0,0,1,.18-.18.18.18,0,1,1,0,.36A.18.18,0,0,1,253.71,108.39Zm0,.47H254v1.52h-.28Z"></path> <path d="M256.13,109.62a.74.74,0,0,1-.77.78.62.62,0,0,1-.53-.25v.79h-.28v-2.08h.27v.24a.64.64,0,0,1,.54-.25A.74.74,0,0,1,256.13,109.62Zm-.28,0a.51.51,0,1,0-.51.54A.5.5,0,0,0,255.85,109.62Z"></path> <path d="M256.31,110.22l.12-.22a.9.9,0,0,0,.53.16c.26,0,.36-.08.36-.2,0-.35-1,0-1-.66,0-.27.25-.45.64-.45a1.07,1.07,0,0,1,.55.14l-.12.21a.88.88,0,0,0-.44-.12c-.24,0-.35.09-.35.21,0,.36,1,.07,1,.66,0,.27-.25.45-.66.45A1.12,1.12,0,0,1,256.31,110.22Z"></path> <path d="M259.36,108.86v1.52h-.26v-.23a.63.63,0,0,1-.52.25.6.6,0,0,1-.65-.66v-.88h.27v.85a.38.38,0,0,0,.41.44.44.44,0,0,0,.47-.5v-.79Z"></path> <path d="M262.4,109.51v.87h-.27v-.84c0-.3-.15-.44-.4-.44s-.45.17-.45.5v.78H261v-.84c0-.3-.14-.44-.39-.44a.44.44,0,0,0-.46.5v.78h-.27v-1.52h.26v.23a.61.61,0,0,1,.53-.24.58.58,0,0,1,.53.28.67.67,0,0,1,.58-.28A.58.58,0,0,1,262.4,109.51Z"></path> <path d="M264.89,109l-1,.39,1,.39V110l-1.28-.51v-.24l1.28-.51Z"></path> <path d="M266,108h.25l-.95,2.7H265Z"></path> <path d="M266.87,108.63h-.68v-.25h1.66v.25h-.69v1.75h-.29Z"></path> <path d="M268.16,108.38h.28v2h-.28Z"></path> <path d="M269.44,108.63h-.68v-.25h1.65v.25h-.68v1.75h-.29Z"></path> <path d="M270.73,108.38H271v1.75h1.09v.25h-1.37Z"></path> <path d="M273.88,110.13v.25h-1.45v-2h1.41v.25h-1.13v.61h1v.25h-1v.64Z"></path> <path d="M275.52,109.26v.24l-1.28.51v-.24l1-.39-1-.39v-.24Z"></path> <path d="M232.81,115.86l-1,.39,1,.39v.24l-1.28-.51v-.24l1.28-.51Z"></path> <path d="M233.87,114.84h.25l-1,2.7h-.25Z"></path> <path d="M236,115.25v2h-.29v-.89H234.6v.89h-.29v-2h.29v.86h1.15v-.86Z"></path> <path d="M238.09,117v.25h-1.45v-2h1.41v.25h-1.13v.61h1v.25h-1V117Z"></path> <path d="M239.83,116.75h-1.06l-.22.5h-.3l.91-2h.28l.91,2h-.3Zm-.1-.23-.43-1-.43,1Z"></path> <path d="M240.65,115.25h.85a1,1,0,1,1,0,2h-.85Zm.83,1.75a.75.75,0,1,0,0-1.5h-.54V117Z"></path> <path d="M244.19,116.13v.24l-1.28.51v-.24l1-.39-1-.39v-.24Z"></path> <path d="M227.49,121.82l-1,.39,1,.4v.23l-1.28-.5v-.25l1.28-.51Z"></path> <path d="M229.71,122.68c0,.34-.26.54-.77.54h-1v-2h.9c.46,0,.72.2.72.52a.52.52,0,0,0,.11,1Zm-1.44-1.24v.65h.59c.29,0,.45-.11.45-.33s-.16-.32-.45-.32Zm1.15,1.21c0-.23-.17-.33-.49-.33h-.66V123h.66C229.25,123,229.42,122.88,229.42,122.65Z"></path> <path d="M230,122.21a1.07,1.07,0,1,1,1.06,1A1,1,0,0,1,230,122.21Zm1.84,0a.78.78,0,1,0-.78.77A.75.75,0,0,0,231.83,122.21Z"></path> <path d="M232.55,121.21h.85a1,1,0,1,1,0,2h-.85Zm.83,1.76a.76.76,0,1,0,0-1.51h-.54V123Z"></path> <path d="M235.6,122.52v.7h-.28v-.7l-.8-1.31h.31l.64,1.06.64-1.06h.29Z"></path> <path d="M237.86,122.09v.25l-1.28.5v-.23l1-.4-1-.39v-.24Z"></path> <path d="M227.49,128.69l-1,.4,1,.39v.24l-1.28-.51V129l1.28-.5Z"></path> <path d="M229.71,128.08v2h-.29v-.9h-1.15v.9H228v-2h.29V129h1.15v-.87Z"></path> <path d="M230.77,128.08v2h-.29v-1.76H230v-.25Z"></path> <path d="M232.54,129v.25l-1.28.51v-.24l1-.39-1-.4v-.23Z"></path> <path d="M233.83,128.08H234v1.83h1.12v.18h-1.33Z"></path> <path d="M235.3,129.33a.77.77,0,1,1,.76.77A.74.74,0,0,1,235.3,129.33Zm1.32,0a.56.56,0,1,0-.56.59A.55.55,0,0,0,236.62,129.33Z"></path> <path d="M238,128.57v.2H238a.49.49,0,0,0-.5.56v.77h-.21v-1.51h.2v.3A.56.56,0,0,1,238,128.57Z"></path> <path d="M239.67,129.4h-1.26a.55.55,0,0,0,.59.52.57.57,0,0,0,.46-.2l.12.14a.76.76,0,0,1-.59.24.75.75,0,0,1-.79-.77.73.73,0,0,1,.74-.76.72.72,0,0,1,.73.76Zm-1.26-.15h1.07a.54.54,0,0,0-.54-.51A.52.52,0,0,0,238.41,129.25Z"></path> <path d="M242.57,129.21v.88h-.2v-.86c0-.31-.16-.48-.43-.48a.49.49,0,0,0-.51.55v.79h-.2v-.86c0-.31-.16-.48-.44-.48a.49.49,0,0,0-.5.55v.79h-.21v-1.51h.2v.28a.6.6,0,0,1,.55-.29.55.55,0,0,1,.54.32.64.64,0,0,1,.59-.32A.57.57,0,0,1,242.57,129.21Z"></path> <path d="M243.83,128.11a.15.15,0,0,1,.29,0,.14.14,0,0,1-.15.15A.14.14,0,0,1,243.83,128.11Zm0,.47h.2v1.51h-.2Z"></path> <path d="M246.17,129.33a.73.73,0,0,1-.75.77.65.65,0,0,1-.57-.29v.83h-.21v-2.06h.2v.3a.65.65,0,0,1,.58-.31A.73.73,0,0,1,246.17,129.33Zm-.2,0a.56.56,0,0,0-.57-.58.59.59,0,1,0,.57.58Z"></path> <path d="M246.37,129.92l.1-.16a.93.93,0,0,0,.53.17c.29,0,.41-.1.41-.25,0-.39-1-.08-1-.68,0-.25.21-.43.59-.43a1,1,0,0,1,.54.14l-.09.16a.79.79,0,0,0-.45-.13c-.27,0-.39.11-.39.25,0,.41,1,.1,1,.68,0,.26-.23.43-.62.43A1.09,1.09,0,0,1,246.37,129.92Z"></path> <path d="M249.34,128.58v1.51h-.19v-.28a.6.6,0,0,1-.55.29.58.58,0,0,1-.63-.64v-.88h.2v.86a.42.42,0,0,0,.45.48.49.49,0,0,0,.52-.55v-.79Z"></path> <path d="M252.4,129.21v.88h-.21v-.86c0-.31-.16-.48-.43-.48a.48.48,0,0,0-.5.55v.79h-.21v-.86c0-.31-.16-.48-.43-.48a.49.49,0,0,0-.51.55v.79h-.2v-1.51h.19v.28a.63.63,0,0,1,.56-.29.54.54,0,0,1,.53.32.66.66,0,0,1,.6-.32A.57.57,0,0,1,252.4,129.21Z"></path> <path d="M255.07,128v2.13h-.19v-.3a.65.65,0,0,1-.58.31.77.77,0,0,1,0-1.53.65.65,0,0,1,.57.3V128Zm-.2,1.37a.56.56,0,1,0-.56.59A.55.55,0,0,0,254.87,129.33Z"></path> <path d="M255.49,129.33a.77.77,0,1,1,.77.77A.74.74,0,0,1,255.49,129.33Zm1.32,0a.54.54,0,0,0-.55-.58.59.59,0,0,0,0,1.17A.54.54,0,0,0,256.81,129.33Z"></path> <path d="M257.43,128h.21v2.13h-.21Z"></path> <path d="M258.05,129.33a.77.77,0,1,1,.77.77A.74.74,0,0,1,258.05,129.33Zm1.33,0a.56.56,0,1,0-.56.59A.55.55,0,0,0,259.38,129.33Z"></path> <path d="M260.76,128.57v.2h-.05a.5.5,0,0,0-.51.56v.77H260v-1.51h.19v.3A.58.58,0,0,1,260.76,128.57Z"></path> <path d="M261.69,129.92l.09-.16a.94.94,0,0,0,.54.17c.28,0,.4-.1.4-.25,0-.39-1-.08-1-.68,0-.25.21-.43.6-.43a1,1,0,0,1,.53.14l-.09.16a.78.78,0,0,0-.44-.13c-.27,0-.39.11-.39.25,0,.41,1,.1,1,.68,0,.26-.23.43-.62.43A1,1,0,0,1,261.69,129.92Z"></path> <path d="M263.25,128.11a.15.15,0,0,1,.3,0,.14.14,0,0,1-.15.15A.15.15,0,0,1,263.25,128.11Zm.05.47h.2v1.51h-.2Z"></path> <path d="M264.86,130a.49.49,0,0,1-.32.1.4.4,0,0,1-.44-.44v-.91h-.27v-.17h.27v-.33h.21v.33h.45v.17h-.45v.9c0,.18.09.28.26.28a.35.35,0,0,0,.22-.08Z"></path> <path d="M267.12,129.15v.94h-.2v-.24a.56.56,0,0,1-.52.25c-.34,0-.55-.17-.55-.44s.15-.42.59-.42h.48v-.09c0-.26-.15-.4-.43-.4a.74.74,0,0,0-.5.18l-.1-.16a1,1,0,0,1,.62-.2A.53.53,0,0,1,267.12,129.15Zm-.2.49v-.25h-.48c-.29,0-.38.11-.38.27s.14.28.38.28A.49.49,0,0,0,266.92,129.64Z"></path> <path d="M270.16,129.21v.88H270v-.86c0-.31-.16-.48-.43-.48a.48.48,0,0,0-.5.55v.79h-.21v-.86c0-.31-.16-.48-.43-.48a.49.49,0,0,0-.51.55v.79h-.2v-1.51h.19v.28a.63.63,0,0,1,.56-.29.54.54,0,0,1,.53.32.66.66,0,0,1,.6-.32A.57.57,0,0,1,270.16,129.21Z"></path> <path d="M272,129.4h-1.27a.57.57,0,0,0,.6.52.58.58,0,0,0,.46-.2l.11.14a.73.73,0,0,1-.58.24.75.75,0,0,1-.79-.77.73.73,0,0,1,.74-.76.72.72,0,0,1,.73.76Zm-1.27-.15h1.07a.52.52,0,0,0-.53-.51A.54.54,0,0,0,270.76,129.25Z"></path> <path d="M273.24,130a.49.49,0,0,1-.32.1.4.4,0,0,1-.44-.44v-.91h-.27v-.17h.27v-.33h.2v.33h.46v.17h-.46v.9c0,.18.09.28.26.28a.33.33,0,0,0,.22-.08Z"></path> <path d="M273.81,130a.45.45,0,0,1,0,.16l-.12.4h-.14l.1-.42a.15.15,0,0,1-.11-.14.16.16,0,0,1,.16-.16A.15.15,0,0,1,273.81,130Z"></path> <path d="M274.84,129.33a.75.75,0,0,1,.78-.76.66.66,0,0,1,.59.3l-.16.1a.5.5,0,0,0-.43-.22.59.59,0,0,0,0,1.17.5.5,0,0,0,.43-.22l.16.11a.67.67,0,0,1-.59.29A.74.74,0,0,1,274.84,129.33Z"></path> <path d="M276.42,129.33a.77.77,0,1,1,.77.77A.74.74,0,0,1,276.42,129.33Zm1.33,0a.56.56,0,1,0-.56.59A.55.55,0,0,0,277.75,129.33Z"></path> <path d="M279.76,129.21v.88h-.2v-.86a.43.43,0,0,0-.46-.48.49.49,0,0,0-.52.55v.79h-.21v-1.51h.2v.28a.64.64,0,0,1,.57-.29A.57.57,0,0,1,279.76,129.21Z"></path> <path d="M280.1,129.92l.09-.16a1,1,0,0,0,.54.17c.29,0,.4-.1.4-.25,0-.39-1-.08-1-.68,0-.25.21-.43.59-.43a1,1,0,0,1,.54.14l-.09.16a.81.81,0,0,0-.45-.13c-.27,0-.39.11-.39.25,0,.41,1,.1,1,.68,0,.26-.23.43-.63.43A1.05,1.05,0,0,1,280.1,129.92Z"></path> <path d="M283,129.4h-1.26a.57.57,0,0,0,.6.52.58.58,0,0,0,.46-.2l.11.14a.73.73,0,0,1-.58.24.75.75,0,0,1-.79-.77.73.73,0,0,1,.74-.76.72.72,0,0,1,.73.76S283,129.38,283,129.4Zm-1.26-.15h1.07a.52.52,0,0,0-.53-.51A.53.53,0,0,0,281.76,129.25Z"></path> <path d="M283.29,129.33a.74.74,0,0,1,.77-.76.65.65,0,0,1,.59.3l-.15.1a.51.51,0,0,0-.44-.22.59.59,0,0,0,0,1.17.51.51,0,0,0,.44-.22l.15.11a.66.66,0,0,1-.59.29A.73.73,0,0,1,283.29,129.33Z"></path> <path d="M285.86,130a.49.49,0,0,1-.32.1.4.4,0,0,1-.44-.44v-.91h-.27v-.17h.27v-.33h.21v.33h.46v.17h-.46v.9c0,.18.09.28.26.28a.35.35,0,0,0,.22-.08Z"></path> <path d="M287.49,129.4h-1.26a.61.61,0,0,0,1,.32l.12.14a.75.75,0,0,1-.58.24.75.75,0,0,1-.79-.77.72.72,0,0,1,.73-.76.71.71,0,0,1,.73.76Zm-1.26-.15h1.07a.54.54,0,0,0-1.07,0Z"></path> <path d="M288.7,130a.49.49,0,0,1-.32.1.4.4,0,0,1-.44-.44v-.91h-.27v-.17h.27v-.33h.2v.33h.46v.17h-.46v.9a.25.25,0,0,0,.27.28.35.35,0,0,0,.22-.08Z"></path> <path d="M290.43,128.58v1.51h-.2v-.28a.64.64,0,0,1-1.18-.35v-.88h.21v.86c0,.32.16.48.45.48a.49.49,0,0,0,.51-.55v-.79Z"></path> <path d="M292.31,129.4h-1.26a.55.55,0,0,0,.59.52.57.57,0,0,0,.46-.2l.12.14a.76.76,0,0,1-.59.24.75.75,0,0,1-.79-.77.73.73,0,0,1,.74-.76.72.72,0,0,1,.73.76Zm-1.26-.15h1.07a.53.53,0,0,0-.54-.51A.52.52,0,0,0,291.05,129.25Z"></path> <path d="M293.48,128.57v.2h0a.49.49,0,0,0-.51.56v.77h-.2v-1.51h.19v.3A.57.57,0,0,1,293.48,128.57Z"></path> <path d="M227.44,132.59v.93h-.2v-.23a.58.58,0,0,1-.52.25c-.34,0-.55-.18-.55-.44s.15-.43.58-.43h.48v-.09c0-.26-.14-.4-.43-.4a.78.78,0,0,0-.5.18l-.09-.15a1,1,0,0,1,.61-.2C227.21,132,227.44,132.2,227.44,132.59Zm-.21.48v-.24h-.47c-.29,0-.39.11-.39.26s.14.29.38.29A.48.48,0,0,0,227.23,133.07Z"></path> <path d="M229.37,131.4v2.12h-.2v-.29a.65.65,0,0,1-.58.31.77.77,0,0,1,0-1.53.65.65,0,0,1,.57.29v-.9Zm-.2,1.37a.56.56,0,1,0-.56.59A.55.55,0,0,0,229.17,132.77Z"></path> <path d="M229.89,131.54a.14.14,0,0,1,.15-.14.15.15,0,0,1,.15.14.15.15,0,0,1-.15.15A.15.15,0,0,1,229.89,131.54Zm0,.48h.21v1.5h-.21Z"></path> <path d="M232.23,132.77a.73.73,0,0,1-.75.77.64.64,0,0,1-.57-.3v.84h-.21V132h.2v.3a.63.63,0,0,1,.58-.31A.73.73,0,0,1,232.23,132.77Zm-.2,0a.57.57,0,1,0-.56.59A.56.56,0,0,0,232,132.77Z"></path> <path d="M232.6,131.54a.15.15,0,0,1,.3,0,.15.15,0,1,1-.3,0Zm.05.48h.2v1.5h-.2Z"></path> <path d="M233.21,133.35l.09-.16a.86.86,0,0,0,.53.17c.29,0,.41-.1.41-.25,0-.39-1-.08-1-.67,0-.25.21-.43.6-.43a1,1,0,0,1,.53.14l-.09.16a.78.78,0,0,0-.44-.13c-.28,0-.4.11-.4.25,0,.41,1,.1,1,.68,0,.26-.23.43-.62.43A1,1,0,0,1,233.21,133.35Z"></path> <path d="M234.66,132.77a.74.74,0,0,1,.78-.76.66.66,0,0,1,.59.29l-.15.11a.49.49,0,0,0-.44-.23.59.59,0,0,0,0,1.18.51.51,0,0,0,.44-.22l.15.1a.65.65,0,0,1-.59.3A.75.75,0,0,1,234.66,132.77Z"></path> <path d="M236.38,131.54a.15.15,0,0,1,.3,0,.15.15,0,0,1-.15.15A.15.15,0,0,1,236.38,131.54Zm.05.48h.2v1.5h-.2Z"></path> <path d="M238.58,132.65v.87h-.2v-.85c0-.32-.16-.48-.45-.48a.5.5,0,0,0-.53.54v.79h-.2V132h.19v.28A.63.63,0,0,1,238,132,.57.57,0,0,1,238.58,132.65Z"></path> <path d="M240.54,132v1.32a.67.67,0,0,1-.76.76,1.06,1.06,0,0,1-.7-.24l.1-.15a.92.92,0,0,0,.6.2c.38,0,.55-.17.55-.54v-.19a.67.67,0,0,1-.58.29.72.72,0,0,1-.76-.74.71.71,0,0,1,.76-.72.66.66,0,0,1,.59.3V132Zm-.2.71a.54.54,0,0,0-.57-.55.56.56,0,1,0,0,1.11A.54.54,0,0,0,240.34,132.73Z"></path> <path d="M243.17,132.83h-1.26a.55.55,0,0,0,.59.53.6.6,0,0,0,.46-.2l.12.13a.77.77,0,0,1-.59.25.75.75,0,0,1-.79-.77.73.73,0,0,1,.74-.76.72.72,0,0,1,.73.76Zm-1.26-.15H243a.53.53,0,0,0-.54-.5A.52.52,0,0,0,241.91,132.68Z"></path> <path d="M243.59,131.4h.2v2.12h-.2Z"></path> <path d="M244.31,131.54a.15.15,0,0,1,.3,0,.15.15,0,0,1-.3,0Zm.05.48h.2v1.5h-.2Z"></path> <path d="M245.92,133.43a.5.5,0,0,1-.32.11.4.4,0,0,1-.44-.44v-.91h-.27V132h.27v-.33h.2V132h.46v.17h-.46v.9a.24.24,0,0,0,.26.27.35.35,0,0,0,.23-.07Z"></path> <path d="M246.49,133.38a.45.45,0,0,1,0,.17l-.12.39h-.14l.1-.41a.15.15,0,0,1-.1-.15.14.14,0,0,1,.15-.15A.15.15,0,0,1,246.49,133.38Z"></path> <path d="M247.46,133.35l.1-.16a.86.86,0,0,0,.53.17c.29,0,.41-.1.41-.25,0-.39-1-.08-1-.67,0-.25.21-.43.6-.43a1,1,0,0,1,.53.14l-.09.16a.78.78,0,0,0-.44-.13c-.28,0-.4.11-.4.25,0,.41,1,.1,1,.68,0,.26-.23.43-.62.43A1,1,0,0,1,247.46,133.35Z"></path> <path d="M250.39,132.83h-1.26a.55.55,0,0,0,.59.53.6.6,0,0,0,.46-.2l.11.13a.73.73,0,0,1-.58.25.75.75,0,0,1-.79-.77.74.74,0,1,1,1.47,0Zm-1.26-.15h1.06a.53.53,0,0,0-1.06,0Z"></path> <path d="M252.18,131.4v2.12H252v-.29a.65.65,0,0,1-.58.31.77.77,0,0,1,0-1.53.68.68,0,0,1,.58.29v-.9Zm-.2,1.37a.56.56,0,1,0-.56.59A.55.55,0,0,0,252,132.77Z"></path> <path d="M254.87,131.4v2.12h-.2v-.29a.65.65,0,0,1-.58.31.77.77,0,0,1,0-1.53.68.68,0,0,1,.58.29v-.9Zm-.2,1.37a.56.56,0,1,0-.56.59A.55.55,0,0,0,254.67,132.77Z"></path> <path d="M255.39,131.54a.15.15,0,0,1,.3,0,.15.15,0,0,1-.3,0Zm.05.48h.2v1.5h-.2Z"></path> <path d="M257.34,132.59v.93h-.19v-.23a.58.58,0,0,1-.52.25c-.34,0-.55-.18-.55-.44s.15-.43.58-.43h.48v-.09c0-.26-.15-.4-.43-.4a.76.76,0,0,0-.5.18l-.09-.15a1,1,0,0,1,.61-.2A.53.53,0,0,1,257.34,132.59Zm-.2.48v-.24h-.47c-.29,0-.39.11-.39.26s.14.29.38.29A.48.48,0,0,0,257.14,133.07Z"></path> <path d="M260.38,132.65v.87h-.2v-.85c0-.32-.16-.48-.43-.48a.49.49,0,0,0-.51.54v.79H259v-.85c0-.32-.16-.48-.44-.48a.48.48,0,0,0-.5.54v.79h-.2V132h.19v.27a.61.61,0,0,1,.55-.28.54.54,0,0,1,.54.31.66.66,0,0,1,.6-.31A.56.56,0,0,1,260.38,132.65Z"></path> <path d="M262.13,132.13l-1,.39,1,.39v.24l-1.29-.51v-.24l1.29-.51Z"></path> <path d="M263.18,131.11h.25l-.95,2.7h-.24Z"></path> <path d="M265.35,131.52v2h-.29v-.89h-1.15v.89h-.29v-2h.29v.86h1.15v-.86Z"></path> <path d="M266.41,131.52v2h-.29v-1.75h-.45v-.25Z"></path> <path d="M268.18,132.4v.24l-1.28.51v-.24l1-.39-1-.39v-.24Z"></path> <path d="M227.49,139l-1,.39,1,.4V140l-1.28-.5v-.25l1.28-.51Z"></path> <path d="M229.6,139.09c0,.44-.31.7-.84.7h-.49v.61H228v-2h.78C229.29,138.39,229.6,138.65,229.6,139.09Zm-.29,0c0-.29-.19-.45-.55-.45h-.49v.9h.49C229.12,139.54,229.31,139.38,229.31,139.09Z"></path> <path d="M231.22,139.27v.25l-1.28.5v-.23l1-.4-1-.39v-.24Z"></path> <path d="M233.66,139l-1,.39,1,.4V140l-1.28-.5v-.25l1.28-.51Z"></path> <path d="M234.15,138.39h.29v2h-.29Z"></path> <path d="M236.9,140.4v-1.47l-.73,1.22H236l-.73-1.21v1.46H235v-2h.23l.84,1.41.83-1.41h.23v2Z"></path> <path d="M239.16,139.38h.28v.78a1.19,1.19,0,0,1-.76.26,1,1,0,1,1,.78-1.74l-.18.17a.81.81,0,0,0-.58-.23.77.77,0,1,0,0,1.54.85.85,0,0,0,.47-.12Z"></path> <path d="M240.57,140.17l.11-.23a1,1,0,0,0,.66.24c.35,0,.49-.14.49-.31,0-.49-1.21-.18-1.21-.93,0-.31.24-.57.77-.57a1.2,1.2,0,0,1,.64.17l-.09.23a1.08,1.08,0,0,0-.55-.16c-.34,0-.49.14-.49.32,0,.49,1.21.18,1.21.92,0,.31-.24.57-.77.57A1.18,1.18,0,0,1,240.57,140.17Z"></path> <path d="M243.87,140.4l-.43-.62h-.62v.61h-.29v-2h.78c.53,0,.84.26.84.7a.63.63,0,0,1-.44.63l.48.68Zm0-1.31c0-.29-.19-.45-.55-.45h-.49v.9h.49C243.67,139.54,243.86,139.38,243.86,139.09Z"></path> <path d="M244.45,139.39a1.08,1.08,0,0,1,1.83-.71l-.19.18a.76.76,0,0,0-.57-.24.77.77,0,1,0,0,1.54.73.73,0,0,0,.57-.24l.19.18a1.07,1.07,0,0,1-1.83-.71Z"></path> <path d="M246.57,138.94h1.29v.23h-1.29Zm0,.68h1.29v.23h-1.29Z"></path> <path d="M249,138.39h.24l0,.77H249Zm.52,0h.24l0,.77h-.2Z"></path> <path d="M250.24,138.39h.29v1.76h1.08v.25h-1.37Z"></path> <path d="M251.74,139.64a.79.79,0,1,1,.79.77A.75.75,0,0,1,251.74,139.64Zm1.3,0a.51.51,0,1,0-.51.53A.5.5,0,0,0,253,139.64Z"></path> <path d="M254.51,138.86v.27h-.06a.46.46,0,0,0-.48.51v.76h-.27v-1.52H254v.25A.58.58,0,0,1,254.51,138.86Z"></path> <path d="M256.2,139.73H255a.51.51,0,0,0,.55.44A.57.57,0,0,0,256,140l.15.18a.74.74,0,0,1-.6.24.78.78,0,1,1,0-1.55.74.74,0,0,1,.75.79A.25.25,0,0,1,256.2,139.73Zm-1.23-.2h1a.49.49,0,0,0-1,0Z"></path> <path d="M259.11,139.52v.88h-.27v-.85c0-.29-.15-.44-.4-.44s-.45.17-.45.5v.79h-.28v-.85c0-.29-.14-.44-.39-.44a.44.44,0,0,0-.46.5v.79h-.27v-1.52h.26v.22a.64.64,0,0,1,.53-.24.58.58,0,0,1,.53.28.67.67,0,0,1,.58-.28A.58.58,0,0,1,259.11,139.52Z"></path> <path d="M260.34,138.41a.18.18,0,0,1,.18-.18.17.17,0,0,1,.19.17.18.18,0,0,1-.19.18A.17.17,0,0,1,260.34,138.41Zm.05.47h.27v1.52h-.27Z"></path> <path d="M262.76,139.64a.74.74,0,0,1-.77.77.66.66,0,0,1-.53-.24V141h-.28v-2.07h.27v.24a.65.65,0,0,1,.54-.26A.74.74,0,0,1,262.76,139.64Zm-.28,0a.51.51,0,1,0-1,0,.51.51,0,1,0,1,0Z"></path> <path d="M263,140.24l.11-.22a1,1,0,0,0,.53.16c.26,0,.36-.08.36-.21,0-.34-1-.05-1-.65,0-.27.25-.46.64-.46a1,1,0,0,1,.55.14l-.12.22a.76.76,0,0,0-.43-.12c-.25,0-.36.09-.36.21,0,.36,1,.06,1,.65,0,.28-.25.45-.66.45A1.06,1.06,0,0,1,263,140.24Z"></path> <path d="M266,138.88v1.52h-.26v-.23a.65.65,0,0,1-.52.24.59.59,0,0,1-.65-.66v-.87h.27v.84c0,.3.15.45.41.45a.45.45,0,0,0,.47-.51v-.78Z"></path> <path d="M269,139.52v.88h-.27v-.85c0-.29-.15-.44-.4-.44s-.45.17-.45.5v.79h-.28v-.85c0-.29-.14-.44-.39-.44s-.45.17-.45.5v.79h-.28v-1.52h.26v.22a.64.64,0,0,1,.53-.24.57.57,0,0,1,.53.28.67.67,0,0,1,.58-.28A.58.58,0,0,1,269,139.52Z"></path> <path d="M269.46,138.39h.24l0,.77h-.21Zm.52,0h.24l0,.77H270Z"></path> <path d="M271.87,139.27v.25l-1.28.5v-.23l1-.4-1-.39v-.24Z"></path> <path d="M273.54,139l-1,.39,1,.4V140l-1.29-.5v-.25l1.29-.51Z"></path> <path d="M274.59,138h.25l-.94,2.7h-.25Z"></path> <path d="M276.66,139.09c0,.44-.32.7-.84.7h-.5v.61H275v-2h.78C276.34,138.39,276.66,138.65,276.66,139.09Zm-.29,0c0-.29-.19-.45-.56-.45h-.49v.9h.49C276.18,139.54,276.37,139.38,276.37,139.09Z"></path> <path d="M278.28,139.27v.25L277,140v-.23l1-.4-1-.39v-.24Z"></path> <path d="M227.49,145.87l-1,.39,1,.4v.24l-1.28-.51v-.25l1.28-.51Z"></path> <path d="M228.55,144.85h.25l-1,2.7h-.25Z"></path> <path d="M230.71,146.73c0,.34-.26.54-.76.54h-1v-2h.9c.46,0,.72.2.72.52a.52.52,0,0,0,.1.95Zm-1.43-1.24v.65h.58c.3,0,.46-.11.46-.33s-.16-.32-.46-.32Zm1.14,1.21c0-.23-.17-.33-.49-.33h-.65V147h.65C230.25,147,230.42,146.94,230.42,146.7Z"></path> <path d="M231,146.26a1.07,1.07,0,1,1,1.07,1A1,1,0,0,1,231,146.26Zm1.85,0a.78.78,0,1,0-.78.78A.75.75,0,0,0,232.84,146.26Z"></path> <path d="M233.56,145.26h.85a1,1,0,1,1,0,2h-.85Zm.83,1.76a.76.76,0,1,0,0-1.51h-.54V147Z"></path> <path d="M236.61,146.57v.7h-.29v-.7l-.79-1.31h.3l.65,1.06.64-1.06h.29Z"></path> <path d="M238.87,146.14v.25l-1.29.51v-.24l1-.4-1-.39v-.24Z"></path> <path class="cls-5" d="M304.57,92.18c0,.09-19.82.16-44.28.16S216,92.27,216,92.18,235.83,92,260.29,92,304.57,92.09,304.57,92.18Z"></path> <path class="cls-5" d="M218.65,89a.57.57,0,1,1-.57-.57A.57.57,0,0,1,218.65,89Z"></path> <circle class="cls-5" cx="220.27" cy="89.02" r="0.57"></circle> <path class="cls-5" d="M223,89a.56.56,0,0,1-.57.57.57.57,0,0,1-.57-.57.58.58,0,0,1,.57-.57A.57.57,0,0,1,223,89Z"></path> <path class="cls-3" d="M221.63,159.17c-.09,0-.17-15-.17-33.57s.08-33.58.17-33.58.16,15,.16,33.58S221.71,159.17,221.63,159.17Z"></path> <rect class="cls-7" x="296.65" y="126.75" width="33.1" height="23.59"></rect> <path class="cls-2" d="M330,130.25c0,.06-7.47.1-16.69.1s-16.68,0-16.68-.1,7.47-.11,16.68-.11S330,130.19,330,130.25Z"></path> <path class="cls-2" d="M299.35,128.53a.45.45,0,1,1-.44-.39A.42.42,0,0,1,299.35,128.53Z"></path> <path class="cls-2" d="M301,128.53a.45.45,0,0,1-.89,0,.45.45,0,0,1,.89,0Z"></path> <path class="cls-2" d="M302.6,128.53a.45.45,0,1,1-.44-.39A.42.42,0,0,1,302.6,128.53Z"></path> <rect class="cls-7" x="80.02" y="126.41" width="24.4" height="17.39"></rect> <path class="cls-2" d="M104.61,129s-5.51.08-12.3.08S80,129,80,129s5.51-.08,12.3-.08S104.61,129,104.61,129Z"></path> <path class="cls-2" d="M82,127.72a.33.33,0,1,1-.33-.29A.31.31,0,0,1,82,127.72Z"></path> <path class="cls-2" d="M83.21,127.72a.33.33,0,1,1-.33-.29A.31.31,0,0,1,83.21,127.72Z"></path> <path class="cls-2" d="M84.41,127.72a.33.33,0,1,1-.33-.29A.31.31,0,0,1,84.41,127.72Z"></path> <path class="cls-8" d="M139.4,161.13l16.14,54.49a5.71,5.71,0,0,0,5.47,4.07l65.49.18a6.05,6.05,0,0,0,6.06-6.37h0a6.05,6.05,0,0,0-6.05-5.73h-25l-20.06-55.89h-35.1A7.2,7.2,0,0,0,139.4,161.13Z"></path> <path class="cls-5" d="M194.81,212.24c0,.13-6.68.23-14.91.23s-14.92-.1-14.92-.23,6.68-.23,14.92-.23S194.81,212.11,194.81,212.24Z"></path> <path class="cls-5" d="M144.22,153.61c.12,0,4.58,13,10,29.14S163.82,212,163.7,212s-4.58-13-10-29.14S144.1,153.65,144.22,153.61Z"></path> <polygon class="cls-8" points="192.09 268.11 188.09 268.01 188.09 219.69 192.09 219.69 192.09 268.11"></polygon> <polygon class="cls-8" points="171.51 267.89 208.67 267.89 191.84 262.04 187.84 262.04 171.51 267.89"></polygon> <path class="cls-9" d="M162.12,139.39l6.14,30.71-1.09,23,41.32-6.88-1.62-20.15,0-16.68L217,169.05l7.89-15.24-14.45-26.17h0a24.27,24.27,0,0,0-9.45-6.12,19.71,19.71,0,0,0-5.92-1.14h0a23.69,23.69,0,0,1-14.31,0c-.58.08-1.38.15-2.4.27l-.18,0a18.27,18.27,0,0,0-16,17.18Z"></path> <path class="cls-9" d="M178.33,120.67s-17,.13-19.08,18.06L159,151.88l14.62-.12Z"></path> <path class="cls-10" d="M218.9,143.74c0,.13-13.36.23-29.84.23s-29.84-.1-29.84-.23,13.36-.23,29.84-.23S218.9,143.61,218.9,143.74Z"></path> <path class="cls-10" d="M218.9,146.58c0,.13-13.36.23-29.84.23s-29.84-.1-29.84-.23,13.36-.23,29.84-.23S218.9,146.45,218.9,146.58Z"></path> <path class="cls-10" d="M217.94,141.38c0,.13-13.15.23-29.36.23s-29.36-.1-29.36-.23,13.14-.23,29.36-.23S217.94,141.26,217.94,141.38Z"></path> <path class="cls-5" d="M206.62,169.05c-.13,0-.07-7.27.12-16.23s.46-16.23.59-16.22.07,7.26-.13,16.23S206.74,169.05,206.62,169.05Z"></path> <path class="cls-11" d="M200.81,157.26s8,.58,9.48,2.7,3.65,8.18,2.81,8.22a2.26,2.26,0,0,1-1.44-.45l-2.2-3.9s.35,3.76-1,3.84-7.84,1.38-7.84,1.38Z"></path> <path class="cls-9" d="M159,148.38l0,20.71a7.87,7.87,0,0,0,9.53,7.26l32.38-6.68-.07-13.27-27.94,5.36-.37-14Z"></path> <path class="cls-5" d="M177.45,174.69a2.16,2.16,0,0,1,.42-.12l1.26-.28,4.76-1,16.85-3.45-.16.21c0-4.17,0-8.78,0-13.64l.28.22-5.7,1.1L172.88,162l-.24.05v-.24c.21-6.17.38-11.3.51-14.93.07-1.77.13-3.17.17-4.17,0-.46,0-.82.06-1.1s0-.38.05-.38a2.21,2.21,0,0,1,0,.38v1.1c0,1,0,2.41-.06,4.17-.09,3.64-.21,8.77-.35,14.93l-.23-.19,22.24-4.31,5.69-1.09.27,0v.28c0,4.86,0,9.47,0,13.64v.17l-.17,0-16.89,3.28-4.78.89-1.26.22A2.44,2.44,0,0,1,177.45,174.69Z"></path> <path class="cls-5" d="M196,120.67a1.12,1.12,0,0,1,.13.31,5.48,5.48,0,0,1,.25.91,7.6,7.6,0,0,1-.15,3.49,9.16,9.16,0,0,1-2.81,4.33,8.71,8.71,0,0,1-5.89,2.23,8,8,0,0,1-5.83-2.37,8.28,8.28,0,0,1-2.17-4.69,7.45,7.45,0,0,1,.41-3.46,4.29,4.29,0,0,1,.42-.86c.11-.18.17-.27.19-.27s-.2.42-.44,1.19a7.55,7.55,0,0,0-.25,3.36,7.94,7.94,0,0,0,2.15,4.44,7.65,7.65,0,0,0,5.52,2.2,8.38,8.38,0,0,0,5.61-2.09,9,9,0,0,0,2.78-4.11,8,8,0,0,0,.29-3.36C196.12,121.12,196,120.68,196,120.67Z"></path> <path class="cls-10" d="M197.58,170.77a10.52,10.52,0,0,1,0-2c0-1.26.11-3,.12-4.91s0-3.65-.06-4.91a9,9,0,0,1,0-2,8,8,0,0,1,.3,2c.12,1.26.21,3,.2,4.93s-.12,3.68-.25,4.93A8.36,8.36,0,0,1,197.58,170.77Z"></path> <path class="cls-10" d="M195.91,171.11a10.16,10.16,0,0,1-.06-2c0-1.42,0-3.06.06-4.88s0-3.45,0-4.87a9.14,9.14,0,0,1,.08-2,8.57,8.57,0,0,1,.25,2c.08,1.25.15,3,.14,4.9s-.09,3.64-.19,4.89A8.44,8.44,0,0,1,195.91,171.11Z"></path> <path class="cls-7" d="M228.34,253.38l6.12,16.85,8.68,11.94a1.82,1.82,0,0,1-.51,2.63h0A1.83,1.83,0,0,1,241,285c-3.5-1.46-16.36-6.87-16.74-8.13-.44-1.45-8.73-19.58-8.73-19.58Z"></path> <g class="cls-12"> <path class="cls-2" d="M242.63,284.8l-18.85-9.1.28.7a2.74,2.74,0,0,0,1.26,1.44c1.55.83,5.87,3,15.59,7.13a1.85,1.85,0,0,0,1.72-.17Z"></path> </g> <g class="cls-12"> <path class="cls-2" d="M225.12,269a1.12,1.12,0,0,1,.81,1.24,1.08,1.08,0,0,1-1.23.82,1.18,1.18,0,0,1-.85-1.32,1.11,1.11,0,0,1,1.37-.71"></path> </g> <path class="cls-5" d="M236,279a4,4,0,0,1,2.74-3c0-.05-.26-.09-.67,0a2.92,2.92,0,0,0-1.4.85,2.88,2.88,0,0,0-.72,1.46C235.86,278.73,235.93,279,236,279Z"></path> <path class="cls-5" d="M238,280.76c.11,0,.44-.71,1.21-1.29s1.56-.73,1.55-.85a2.08,2.08,0,0,0-1.8.54C238.12,279.83,237.93,280.75,238,280.76Z"></path> <path class="cls-5" d="M232.64,277a19.24,19.24,0,0,1,1.72-2.12,18.05,18.05,0,0,1,2.25-1.54,5,5,0,0,0-4,3.66Z"></path> <path class="cls-5" d="M230.35,272c.09.09.86-.66,2-1.17s2.25-.59,2.25-.71a4.59,4.59,0,0,0-4.29,1.88Z"></path> <path class="cls-5" d="M228.43,267.11a9.26,9.26,0,0,1,2.09-1.28,8.83,8.83,0,0,1,2.44-.3s-.25-.19-.73-.26a4,4,0,0,0-3.39,1.19C228.51,266.81,228.39,267.08,228.43,267.11Z"></path> <path class="cls-5" d="M230.13,264.91a1.6,1.6,0,0,0-.22-.64,4.87,4.87,0,0,0-1.15-1.46,2.08,2.08,0,0,0-1.2-.6.73.73,0,0,0-.71.45,1.21,1.21,0,0,0,0,.86,2.6,2.6,0,0,0,3,1.41,3,3,0,0,0,2.19-2.54,1,1,0,0,0-.27-.83.75.75,0,0,0-.85-.08,2.62,2.62,0,0,0-.88,1,5.31,5.31,0,0,0-.63,1.74c-.07.44-.06.68,0,.68a8.09,8.09,0,0,1,.9-2.27,2.33,2.33,0,0,1,.79-.86.4.4,0,0,1,.46,0,.75.75,0,0,1,.14.56,2.7,2.7,0,0,1-1.92,2.18,2.25,2.25,0,0,1-2.55-1.16.85.85,0,0,1-.05-.6.4.4,0,0,1,.39-.26,1.86,1.86,0,0,1,1,.5A6.93,6.93,0,0,1,230.13,264.91Z"></path> <path class="cls-7" d="M254.18,249l-.53,13.7s13.74,5.13,13.89,7.67L241,270.27l-.06-21.37Z"></path> <g class="cls-12"> <path class="cls-2" d="M245.43,261.49a1.09,1.09,0,0,0-.76,1.24,1,1,0,0,0,1.22.76,1.14,1.14,0,0,0,.79-1.32,1.08,1.08,0,0,0-1.35-.65"></path> </g> <g class="cls-12"> <path class="cls-2" d="M241,270.27v-2.13l25.55.85s1.19.52,1.05,1.35Z"></path> </g> <path class="cls-5" d="M254.08,262.53c0,.13-.66.19-1.3.6s-1,1-1.1.91.08-.8.86-1.29S254.11,262.41,254.08,262.53Z"></path> <path class="cls-5" d="M256.86,263.69c0,.13-.53.35-1,.9s-.57,1.12-.7,1.12-.21-.74.35-1.41S256.86,263.57,256.86,263.69Z"></path> <path class="cls-5" d="M258.44,267c-.12,0-.3-.63,0-1.34s.94-1,1-.88-.33.49-.59,1.07S258.57,267,258.44,267Z"></path> <path class="cls-5" d="M253.85,259.4c0,.11-.65-.07-1.38,0s-1.31.28-1.38.17.49-.58,1.35-.62S253.92,259.29,253.85,259.4Z"></path> <g class="cls-4"> <polygon points="254.07 251.68 253.98 254.12 240.91 253.97 240.9 251.77 254.07 251.68"></polygon> </g> <path class="cls-5" d="M253.91,256.63a2.57,2.57,0,0,1-1.33,0,6.26,6.26,0,0,1-1.4-.43,6.33,6.33,0,0,1-.76-.41,1.73,1.73,0,0,1-.4-.31.57.57,0,0,1-.06-.69.7.7,0,0,1,.57-.3,1.47,1.47,0,0,1,.5.07,4.7,4.7,0,0,1,2.05,1.1c.62.57.83,1,.78,1.08s-.35-.36-1-.84a5.25,5.25,0,0,0-1.19-.67,4.23,4.23,0,0,0-.76-.24c-.28-.07-.52-.08-.59.05s0,.07,0,.15a2.11,2.11,0,0,0,.3.23,6.24,6.24,0,0,0,.7.4,8,8,0,0,0,1.29.5A8.81,8.81,0,0,1,253.91,256.63Z"></path> <path class="cls-5" d="M253.74,256.82a2.14,2.14,0,0,1-.35-1.29,4.19,4.19,0,0,1,.19-1.46,4,4,0,0,1,.34-.81,1.1,1.1,0,0,1,.85-.67.61.61,0,0,1,.55.38,1.66,1.66,0,0,1,.14.49,3,3,0,0,1,0,.89,3.18,3.18,0,0,1-.57,1.38c-.53.68-1.07.84-1.08.79s.41-.31.81-1a3.18,3.18,0,0,0,.43-1.25,2.86,2.86,0,0,0,0-.77c0-.29-.14-.51-.25-.48s-.36.21-.47.43a5.76,5.76,0,0,0-.33.72,4.72,4.72,0,0,0-.26,1.33C253.67,256.31,253.81,256.8,253.74,256.82Z"></path> <path class="cls-5" d="M240.92,183.31l-36.54,3.76,2.84,25.57s30.6-8.09,30.38-7.43S239,259.62,239,259.62h18.43l.35-60.88A15.3,15.3,0,0,0,240.92,183.31Z"></path> <path class="cls-5" d="M166.79,193.62v7.93c0,5.4,6.14,11.13,11.54,11.13h4.18c3.29,0,8.44-2.4,11.1-4.34l1.59-1.17,19.19,59.45s22-3.94,22-4.63-14.86-48.69-21.73-71c-2.8-9.1-12.55-14.39-21.55-11.3-.3.1-.61.22-.92.34C182.3,184,166.79,193.62,166.79,193.62Z"></path> <path class="cls-8" d="M236.34,262a1.45,1.45,0,0,1-.09-.21l-.25-.64c-.2-.56-.51-1.39-.87-2.46-.73-2.15-1.74-5.28-3-9.16-2.45-7.74-5.73-18.47-9.3-30.34l-5-16.74-2.17-7.31-1-3.31a27.74,27.74,0,0,0-1-3,12.25,12.25,0,0,0-3.1-4.39,25.14,25.14,0,0,0-3.24-2.53c-.94-.63-1.69-1.1-2.2-1.41l-.58-.36a.71.71,0,0,1-.19-.14l.21.1.6.32c.53.28,1.3.73,2.26,1.34a23.58,23.58,0,0,1,3.32,2.49,12.4,12.4,0,0,1,3.22,4.45,27.58,27.58,0,0,1,1,3c.33,1.06.67,2.16,1,3.3.7,2.29,1.44,4.73,2.22,7.3,1.55,5.14,3.25,10.8,5,16.73,3.58,11.85,6.82,22.57,9.17,30.38,1.19,3.85,2.16,7,2.83,9.19.34,1.06.6,1.89.79,2.49.08.27.15.48.2.65A.82.82,0,0,1,236.34,262Z"></path> <path class="cls-8" d="M241,197.54c.11.08-.93,1.65-1.81,3.78s-1.26,4-1.4,3.94a10.1,10.1,0,0,1,1-4.12A9.82,9.82,0,0,1,241,197.54Z"></path> <path class="cls-8" d="M244.5,200c.05.13-1.54.82-3.18,2.13s-2.71,2.67-2.83,2.59a10.09,10.09,0,0,1,6-4.72Z"></path> <path class="cls-8" d="M214.59,266.62c-.12,0-5.3-15.87-11.57-35.53s-11.26-35.63-11.14-35.67,5.3,15.87,11.58,35.53S214.72,266.58,214.59,266.62Z"></path> <polygon class="cls-8" points="191.05 173.88 253.85 174.49 265.57 141.38 219.88 141.69 209.28 171.46 191.05 171.74 191.05 173.88"></polygon> <path class="cls-2" d="M238.67,160.79a2.54,2.54,0,1,1,2.87-2.17A2.55,2.55,0,0,1,238.67,160.79Z"></path> <path class="cls-5" d="M185.92,84.28c.59-2.21,2.25-3.29,4.41-4a7.15,7.15,0,0,1,6.49,1.06c1.21.92,2.16,2.26,3.6,2.76,2.38.83,5.16-.95,7.43.12a3.24,3.24,0,0,1-1.53,6.17,2.86,2.86,0,0,1,1.12,4.15,4.31,4.31,0,0,1-4.38,1.6,9.2,9.2,0,0,1-4.26-2.39c-1.23-1.1-2.32-2.35-3.63-3.35a7.08,7.08,0,0,0-4.55-1.67,6.46,6.46,0,0,0-5.13,3.8A16.39,16.39,0,0,0,184.14,99a27.3,27.3,0,0,1-.82,6.63c-.08.25-.2.53-.45.6s-.67-.27-.85-.6a32.71,32.71,0,0,1-3.74-12.18c-.25-2.47-.19-4.81,1.17-6.89s4.79-3.61,6.47-2.29"></path> <path class="cls-11" d="M181.61,94.62l-1.14,25c-.19,4.25.39,10.53,7.13,10.53h0c5.84-.44,7.57-5.9,7.75-9.87.08-1.88.15-3.45.17-3.64,0,0,6.4-.31,7.14-6.59.36-3,.6-9.34.74-15a11.77,11.77,0,0,0-10.53-12l-.6-.07C185.69,82.62,181.74,88,181.61,94.62Z"></path> <path class="cls-13" d="M195.54,116.55a14.69,14.69,0,0,1-7.94-3.2s1.45,4.73,7.79,4.83Z"></path> <path class="cls-5" d="M201.12,99a.9.9,0,0,1-1,.81.87.87,0,0,1-.84-.91.91.91,0,0,1,1-.81A.85.85,0,0,1,201.12,99Z"></path> <path class="cls-5" d="M201.73,97.94c-.13.11-.75-.47-1.72-.57s-1.73.31-1.82.18.09-.26.42-.45a2.54,2.54,0,0,1,1.47-.29,2.33,2.33,0,0,1,1.35.6C201.71,97.67,201.79,97.89,201.73,97.94Z"></path> <path class="cls-5" d="M191.62,98.33a.92.92,0,0,1-1,.82.87.87,0,0,1-.84-.91.9.9,0,0,1,1-.81A.86.86,0,0,1,191.62,98.33Z"></path> <path class="cls-5" d="M192.21,97.11c-.12.11-.75-.47-1.72-.57s-1.72.31-1.81.18.08-.26.42-.45a2.54,2.54,0,0,1,1.47-.29,2.39,2.39,0,0,1,1.35.6C192.19,96.84,192.27,97.06,192.21,97.11Z"></path> <path class="cls-5" d="M195,104.65a6.11,6.11,0,0,1,1.6-.12c.25,0,.49,0,.55-.19a1.21,1.21,0,0,0-.09-.74c-.16-.63-.34-1.28-.53-2a33.43,33.43,0,0,1-1.11-5.09,33.41,33.41,0,0,1,1.52,5c.17.68.34,1.34.5,2a1.43,1.43,0,0,1,0,1,.59.59,0,0,1-.44.32,2.16,2.16,0,0,1-.43,0A7.18,7.18,0,0,1,195,104.65Z"></path> <path class="cls-5" d="M192,105c.16,0,.05,1.06.87,1.9s1.94.84,1.94,1-.27.18-.75.14a2.58,2.58,0,0,1-1.62-.77,2.28,2.28,0,0,1-.66-1.58C191.82,105.25,192,105,192,105Z"></path> <path class="cls-5" d="M192.86,93.35c-.12.25-1.07,0-2.22,0s-2.1.23-2.22,0,.13-.35.52-.57a3.78,3.78,0,0,1,1.7-.39,3.61,3.61,0,0,1,1.69.38C192.73,93,192.92,93.23,192.86,93.35Z"></path> <path class="cls-5" d="M201.67,95.11c-.2.2-.84-.1-1.64-.2s-1.49,0-1.62-.25.07-.33.39-.5a2.38,2.38,0,0,1,2.63.36C201.69,94.77,201.75,95,201.67,95.11Z"></path> <path class="cls-11" d="M181.63,99.33c-.1-.06-4.18-1.74-4.5,2.57s4.07,3.75,4.09,3.62S181.63,99.33,181.63,99.33Z"></path> <path class="cls-13" d="M180,103.79s-.08,0-.21.1a.79.79,0,0,1-.56,0,1.89,1.89,0,0,1-.74-1.73,2.48,2.48,0,0,1,.29-1.06.88.88,0,0,1,.61-.54.38.38,0,0,1,.43.24c0,.12,0,.21,0,.22s.09-.07.07-.25a.43.43,0,0,0-.15-.28.53.53,0,0,0-.4-.14,1.06,1.06,0,0,0-.84.61,2.63,2.63,0,0,0-.35,1.18,2,2,0,0,0,1,1.94.8.8,0,0,0,.7-.06C180,103.89,180,103.8,180,103.79Z"></path> <path class="cls-5" d="M204.87,93.84A9.13,9.13,0,0,1,197,91.16c-1.39-1.46-2.37-3.45-4.22-4.24a5.12,5.12,0,0,0-4,.12,9.92,9.92,0,0,0-3.25,2.4c.88,3.33-.32,6.81-1.5,10a1.73,1.73,0,0,1-.6.94c-.55.34-1.28,0-1.67-.56a5.23,5.23,0,0,1-.87-2.93,17.82,17.82,0,0,1,.78-7,12,12,0,0,1,4-5.72A11.47,11.47,0,0,1,194,82.06a14.14,14.14,0,0,1,7.81,3.77,8.32,8.32,0,0,1,2.31,3.32"></path> <path class="cls-14" d="M84.06,226.7a11.75,11.75,0,0,1,7.24-.88,6,6,0,0,1,3.58,1.6,2.58,2.58,0,0,1,0,3.57,3.41,3.41,0,0,1-2.26.57c-1.91,0-4-.36-5.57.8-.87.65-1.45,1.74-2.49,2.07a2.49,2.49,0,0,1-2.72-1.21,4.18,4.18,0,0,1-.3-3.11A4.74,4.74,0,0,1,84.06,226.7Z"></path> <path class="cls-14" d="M79,217c1.35,1.92,4,1.29,5.18.11a9.71,9.71,0,0,0,2.2-4.5c1.06-3.7,2.14-7.59,1.35-11.37a6.3,6.3,0,0,0-1.46-3.09,3.28,3.28,0,0,0-3.13-1c-1.31.35-2.14,1.64-2.73,2.87a27.22,27.22,0,0,0-2.68,11.63A9.52,9.52,0,0,0,79,217"></path> <path class="cls-14" d="M75.32,219.72a7,7,0,0,0,1.08-6.44,12.39,12.39,0,0,0-3.81-5.53,20.56,20.56,0,0,0-6.83-4,7.39,7.39,0,0,0-3.07-.52,3.2,3.2,0,0,0-2.58,1.56c-.72,1.37,0,3,.71,4.39A53.36,53.36,0,0,0,65.31,216a12.17,12.17,0,0,0,4.94,4.22c2,.79,4.17.7,5.26-.73"></path> <path class="cls-5" d="M78.92,246a3.81,3.81,0,0,0,.13-.88c.06-.63.13-1.43.23-2.38a33.78,33.78,0,0,1,.53-3.5,27.23,27.23,0,0,1,1.28-4.13,15.05,15.05,0,0,1,2.1-3.74,8,8,0,0,1,2.67-2.21,7.44,7.44,0,0,1,2.25-.7,3.92,3.92,0,0,0,.87-.13,4.39,4.39,0,0,0-.89,0,6.78,6.78,0,0,0-2.34.61,8,8,0,0,0-2.81,2.23A14.86,14.86,0,0,0,80.75,235a24.61,24.61,0,0,0-1.26,4.19A28.83,28.83,0,0,0,79,242.7c-.07,1-.1,1.83-.12,2.4A4.69,4.69,0,0,0,78.92,246Z"></path> <path class="cls-5" d="M79.09,244.14a1.79,1.79,0,0,0,0-.4v-1.16c0-1,0-2.47,0-4.26.09-3.6.4-7.47,1-12.93.56-5.13,1.32-11.11,2.13-15,.17-.88.34-1.68.5-2.38s.29-1.29.42-1.78l.27-1.13c.06-.26.09-.4.07-.4a2,2,0,0,0-.14.38q-.14.43-.33,1.11c-.15.49-.31,1.08-.48,1.78s-.37,1.48-.56,2.37a128.51,128.51,0,0,0-2.24,13.9c-.6,5.47-.87,10.45-.9,14.06,0,1.8,0,3.26.07,4.27l.07,1.16A1.87,1.87,0,0,0,79.09,244.14Z"></path> <path class="cls-5" d="M79.11,234.54a7,7,0,0,0,0-1.21,32.06,32.06,0,0,0-.37-3.29,42.86,42.86,0,0,0-1.07-4.78,39.21,39.21,0,0,0-2-5.66,30,30,0,0,0-5.87-9.14,15.73,15.73,0,0,0-1.38-1.29c-.21-.18-.4-.36-.59-.5l-.54-.37a6.89,6.89,0,0,0-1-.65,34.5,34.5,0,0,1,3.35,3,31.74,31.74,0,0,1,5.72,9.11,44.08,44.08,0,0,1,2,5.61,46.69,46.69,0,0,1,1.14,4.74c.25,1.36.4,2.48.48,3.25A10.46,10.46,0,0,0,79.11,234.54Z"></path> <polygon class="cls-5" points="69.83 251.48 70.79 264.67 87.73 264.67 88.69 251.48 69.83 251.48"></polygon> <rect class="cls-5" x="68.19" y="246.28" width="22.52" height="5.2"></rect> <polygon class="cls-8" points="68.19 264.16 68.19 265.61 69.25 265.61 90.34 265.61 90.34 264.16 68.19 264.16"></polygon> <polygon class="cls-8" points="70.29 268.14 69.25 265.61 89.53 265.61 88.33 268.14 70.29 268.14"></polygon> <path class="cls-3" d="M88.38,255.79a.49.49,0,0,1-.08.12l-.25.34-1,1.26,0,.06,0-.06-2.42-3.35h.14c-.72,1-1.53,2.15-2.39,3.38l-.07.1-.09-.1c-.88-1.05-1.84-2.18-2.83-3.37h.16l-.15.2-2.53,3.17-.09.11-.07-.11-2.39-3.38h.14l-2.95,3.35-.05.06,0-.06L70.42,256l-.23-.41a1.21,1.21,0,0,1-.08-.15s0,0,.1.13l.26.4,1,1.52h-.09l2.89-3.39.08-.09.06.09,2.41,3.37h-.16l2.52-3.17.16-.2.08-.1.08.1,2.83,3.37h-.16l2.41-3.36.07-.1.07.1,2.37,3.39H87l1-1.23.28-.32Z"></path> <path class="cls-8" d="M88.93,251.39c0,.06-4.25.11-9.48.11s-9.48-.05-9.48-.11,4.24-.1,9.48-.1S88.93,251.34,88.93,251.39Z"></path> <path class="cls-5" d="M89.78,265.75c0,.06-4.61.1-10.3.1s-10.3,0-10.3-.1,4.61-.11,10.3-.11S89.78,265.69,89.78,265.75Z"></path> <polygon class="cls-5" points="290.05 113.93 278.29 163.16 281.58 163.16 293.17 113.93 290.05 113.93"></polygon> <path class="cls-5" d="M285.53,146.35c-.21.9,5.33,27.73,5.33,27.73H288.2L284,152.82Z"></path> <rect class="cls-7" x="269.6" y="209.56" width="55.13" height="58.45"></rect> <rect class="cls-5" x="324.73" y="218.1" width="2.71" height="2.71"></rect> <rect class="cls-5" x="324.73" y="226.69" width="2.71" height="2.71"></rect> <rect class="cls-5" x="324.73" y="235.29" width="2.71" height="2.71"></rect> <rect class="cls-5" x="324.73" y="243.88" width="2.71" height="2.71"></rect> <path class="cls-5" d="M327.53,236.08a4,4,0,0,1,.83-.18,13.46,13.46,0,0,1,2.32-.22,6.19,6.19,0,0,1,3.35.88,3.83,3.83,0,0,1,1.86,3.71,4.56,4.56,0,0,1-.7,2.12,5.87,5.87,0,0,1-1.42,1.51,7.37,7.37,0,0,1-3.23,1.27,10.79,10.79,0,0,1-2.33.08,3.08,3.08,0,0,1-.84-.12,7,7,0,0,1,.85,0,11.65,11.65,0,0,0,2.28-.18,7.26,7.26,0,0,0,3.09-1.28,4.74,4.74,0,0,0,2-3.42,3.57,3.57,0,0,0-1.7-3.43,6.13,6.13,0,0,0-3.19-.91,18.8,18.8,0,0,0-2.3.12A5.88,5.88,0,0,1,327.53,236.08Z"></path> <path class="cls-5" d="M326.86,227.53a1.29,1.29,0,0,1,.26-.15,5.44,5.44,0,0,1,.8-.33,6.35,6.35,0,0,1,3.16-.17,2.7,2.7,0,0,1,1,.4,1.72,1.72,0,0,1,.72,1,2.81,2.81,0,0,1-.62,2.47,2.93,2.93,0,0,1-1.14.84,1.83,1.83,0,0,1-1.5-.08,1.44,1.44,0,0,1,0-2.64,2.41,2.41,0,0,1,1.58-.17,3.36,3.36,0,0,1,1.37.66,3.7,3.7,0,0,1,1.38,2.45,3.47,3.47,0,0,1-.71,2.45,4.9,4.9,0,0,1-1.69,1.43,8.12,8.12,0,0,1-3.07.8l-.86.05a1.15,1.15,0,0,1-.31,0s.42,0,1.15-.15a8.67,8.67,0,0,0,3-.88,4.89,4.89,0,0,0,1.59-1.38,3.22,3.22,0,0,0,.62-2.26,3.35,3.35,0,0,0-1.27-2.24,2.84,2.84,0,0,0-1.25-.59,2.05,2.05,0,0,0-1.36.13,1.25,1.25,0,0,0-.7,1.06,1.19,1.19,0,0,0,.68,1,1.5,1.5,0,0,0,1.24.07,2.66,2.66,0,0,0,1.61-2.94A1.84,1.84,0,0,0,331,227.1a6.66,6.66,0,0,0-3.08.07C327.24,227.37,326.87,227.56,326.86,227.53Z"></path> <path class="cls-5" d="M326.89,219.15a1.36,1.36,0,0,1,.6-.12,4.45,4.45,0,0,1,1.65.24,4.77,4.77,0,0,1,2.06,1.38,4.71,4.71,0,0,1,.18,5.75,4.82,4.82,0,0,1-2,1.51,4.2,4.2,0,0,1-1.64.33,1.49,1.49,0,0,1-.61-.07,6.24,6.24,0,0,0,2.16-.47,4.57,4.57,0,0,0,1.82-1.48,4.49,4.49,0,0,0-.17-5.38,4.74,4.74,0,0,0-1.91-1.36A6.09,6.09,0,0,0,326.89,219.15Z"></path> <path class="cls-5" d="M286,178.5a5.59,5.59,0,0,1,.47,1.1,20.32,20.32,0,0,1,.73,3.31c.23,1.46.42,3.26.61,5.35s.37,4.46.71,7.07c.08.66.18,1.32.32,2a9.28,9.28,0,0,0,.59,2,7.33,7.33,0,0,0,1.36,1.67,10.52,10.52,0,0,0,6.23,2.89,8.75,8.75,0,0,0,4.87-.84,5.89,5.89,0,0,0,3.15-3.95,4.55,4.55,0,0,0-.19-2.63,4.64,4.64,0,0,0-1.71-2.07,5.26,5.26,0,0,0-2.61-.86,4.08,4.08,0,0,0-2.64.77,2.94,2.94,0,0,0-.89,1.06,2.16,2.16,0,0,0-.18,1.35,3.27,3.27,0,0,0,1.71,2.17,7.8,7.8,0,0,0,2.82.78,26.38,26.38,0,0,0,2.93.2,45.7,45.7,0,0,0,5.76-.32c3.76-.42,7.39-1,10.89-1.06a21.31,21.31,0,0,1,9.71,1.83,11.4,11.4,0,0,1,3.61,2.7,8.29,8.29,0,0,1,1.87,3.7,10,10,0,0,1-1.07,7,11.61,11.61,0,0,1-3.66,3.91,14,14,0,0,1-3,1.55,8.88,8.88,0,0,1-1.14.34l.29-.1.83-.3a14.64,14.64,0,0,0,3-1.59,11.75,11.75,0,0,0,3.57-3.89,9.81,9.81,0,0,0,1-6.82,8.07,8.07,0,0,0-1.84-3.59,11.08,11.08,0,0,0-3.54-2.62,21.22,21.22,0,0,0-9.58-1.78c-3.48.05-7.09.65-10.87,1.08a44.16,44.16,0,0,1-5.79.33,26.93,26.93,0,0,1-3-.2,8.29,8.29,0,0,1-2.93-.82,3.56,3.56,0,0,1-1.87-2.39,2.43,2.43,0,0,1,.2-1.55,3,3,0,0,1,1-1.17,4.42,4.42,0,0,1,2.84-.84,5.41,5.41,0,0,1,2.77.92,5,5,0,0,1,1.83,2.22,4.83,4.83,0,0,1,.2,2.81,6.2,6.2,0,0,1-3.32,4.14,9,9,0,0,1-5,.86,10.81,10.81,0,0,1-4.56-1.56,11.21,11.21,0,0,1-1.82-1.42,7.39,7.39,0,0,1-1.4-1.75,9.23,9.23,0,0,1-.61-2c-.13-.68-.23-1.35-.31-2-.32-2.62-.48-5-.66-7.09s-.35-3.88-.55-5.34a24.88,24.88,0,0,0-.67-3.32,8.11,8.11,0,0,0-.29-.83Z"></path> <path class="cls-5" d="M321.59,265.56s0-.09,0-.26,0-.42,0-.75c0-.66,0-1.63,0-2.9,0-2.53,0-6.24,0-10.94,0-9.41,0-22.82-.07-38.86l.14.14-49.83,0h0l.16-.16c0,19.75,0,38.2,0,53.71l-.14-.14,36.11.07,10.13,0h2.67l.93,0h-.9l-2.65,0-10.09,0-36.2.07h-.14v-.13c0-15.51,0-34,0-53.71v-.16h.17l49.83,0h.14v.14c0,16.08-.05,29.52-.07,39,0,4.69,0,8.38,0,10.91,0,1.25,0,2.21,0,2.87v.74A2.17,2.17,0,0,1,321.59,265.56Z"></path> <path class="cls-5" d="M307.55,218.46a.25.25,0,0,1-.25.25.26.26,0,0,1-.26-.25.26.26,0,0,1,.26-.26A.26.26,0,0,1,307.55,218.46Z"></path> <path class="cls-5" d="M309,218.46a.26.26,0,0,1-.51,0,.26.26,0,1,1,.51,0Z"></path> <path class="cls-5" d="M310.37,218.46a.26.26,0,0,1-.51,0,.26.26,0,1,1,.51,0Z"></path> <path class="cls-5" d="M311.78,218.46a.26.26,0,0,1-.26.25.25.25,0,0,1-.25-.25.26.26,0,0,1,.25-.26A.26.26,0,0,1,311.78,218.46Z"></path> <path class="cls-5" d="M313.19,218.46a.26.26,0,0,1-.52,0,.26.26,0,0,1,.52,0Z"></path> <path class="cls-5" d="M314.59,218.46a.25.25,0,0,1-.25.25.26.26,0,0,1-.26-.25.26.26,0,0,1,.26-.26A.26.26,0,0,1,314.59,218.46Z"></path> <path class="cls-5" d="M316,218.46a.26.26,0,0,1-.51,0,.26.26,0,1,1,.51,0Z"></path> <circle class="cls-5" cx="315.1" cy="219.4" r="0.26"></circle> <circle class="cls-5" cx="313.66" cy="219.4" r="0.26"></circle> <path class="cls-5" d="M312.47,219.4a.26.26,0,1,1-.25-.25A.25.25,0,0,1,312.47,219.4Z"></path> <circle class="cls-5" cx="310.78" cy="219.4" r="0.26"></circle> <circle class="cls-5" cx="309.33" cy="219.4" r="0.26"></circle> <path class="cls-5" d="M308.15,219.4a.26.26,0,1,1-.51,0,.26.26,0,0,1,.51,0Z"></path> <path class="cls-5" d="M307.55,220.48a.25.25,0,0,1-.25.25.26.26,0,1,1,0-.51A.25.25,0,0,1,307.55,220.48Z"></path> <path class="cls-5" d="M309,220.48a.26.26,0,0,1-.51,0,.26.26,0,1,1,.51,0Z"></path> <path class="cls-5" d="M310.37,220.48a.26.26,0,1,1-.26-.26A.25.25,0,0,1,310.37,220.48Z"></path> <path class="cls-5" d="M311.78,220.48a.26.26,0,0,1-.26.25.26.26,0,0,1,0-.51A.26.26,0,0,1,311.78,220.48Z"></path> <path class="cls-5" d="M313.19,220.48a.26.26,0,1,1-.26-.26A.26.26,0,0,1,313.19,220.48Z"></path> <path class="cls-5" d="M314.59,220.48a.25.25,0,0,1-.25.25.26.26,0,1,1,0-.51A.25.25,0,0,1,314.59,220.48Z"></path> <path class="cls-5" d="M316,220.48a.26.26,0,0,1-.51,0,.26.26,0,1,1,.51,0Z"></path> <path class="cls-5" d="M315.35,221.42a.26.26,0,0,1-.25.26.26.26,0,0,1-.26-.26.26.26,0,0,1,.26-.25A.25.25,0,0,1,315.35,221.42Z"></path> <path class="cls-5" d="M313.91,221.42a.26.26,0,0,1-.25.26.26.26,0,0,1-.26-.26.26.26,0,0,1,.26-.25A.25.25,0,0,1,313.91,221.42Z"></path> <path class="cls-5" d="M312.47,221.42a.26.26,0,1,1-.51,0,.26.26,0,0,1,.51,0Z"></path> <path class="cls-5" d="M311,221.42a.26.26,0,1,1-.51,0,.26.26,0,0,1,.51,0Z"></path> <path class="cls-5" d="M309.59,221.42a.26.26,0,1,1-.51,0,.26.26,0,0,1,.51,0Z"></path> <path class="cls-5" d="M308.15,221.42a.26.26,0,1,1-.51,0,.26.26,0,0,1,.51,0Z"></path> <path class="cls-5" d="M307.55,222.49a.26.26,0,0,1-.25.26.26.26,0,0,1-.26-.26.26.26,0,0,1,.26-.25A.25.25,0,0,1,307.55,222.49Z"></path> <path class="cls-5" d="M309,222.49a.26.26,0,1,1-.51,0,.26.26,0,0,1,.51,0Z"></path> <path class="cls-5" d="M310.37,222.49a.26.26,0,1,1-.51,0,.26.26,0,0,1,.51,0Z"></path> <path class="cls-5" d="M311.78,222.49a.26.26,0,0,1-.26.26.26.26,0,0,1-.25-.26.25.25,0,0,1,.25-.25A.26.26,0,0,1,311.78,222.49Z"></path> <path class="cls-5" d="M313.19,222.49a.26.26,0,1,1-.52,0,.26.26,0,0,1,.52,0Z"></path> <path class="cls-5" d="M314.59,222.49a.26.26,0,0,1-.25.26.26.26,0,0,1-.26-.26.26.26,0,0,1,.26-.25A.25.25,0,0,1,314.59,222.49Z"></path> <path class="cls-5" d="M316,222.49a.26.26,0,1,1-.51,0,.26.26,0,0,1,.51,0Z"></path> <circle class="cls-5" cx="315.1" cy="223.44" r="0.26"></circle> <circle class="cls-5" cx="313.66" cy="223.44" r="0.26"></circle> <path class="cls-5" d="M312.47,223.44a.26.26,0,1,1-.25-.26A.26.26,0,0,1,312.47,223.44Z"></path> <circle class="cls-5" cx="310.78" cy="223.44" r="0.26"></circle> <circle class="cls-5" cx="309.33" cy="223.44" r="0.26"></circle> <path class="cls-5" d="M308.15,223.44a.26.26,0,1,1-.26-.26A.26.26,0,0,1,308.15,223.44Z"></path> <path class="cls-3" d="M288.07,160.72a3.15,3.15,0,0,1,1,.18,5.64,5.64,0,0,1,2.44,1.59,10.64,10.64,0,0,1,2.15,4.08,41.16,41.16,0,0,1,1.36,6,76.15,76.15,0,0,1,.39,15.91,9.35,9.35,0,0,1-1.38,4.41,5.62,5.62,0,0,1-1.74,1.69,3.93,3.93,0,0,1-2.42.57,3.7,3.7,0,0,1-2.28-1.06,2.82,2.82,0,0,1-.68-1.12,2.41,2.41,0,0,1,0-1.33,2.84,2.84,0,0,1,1.73-2,2,2,0,0,1,1.36,0,2.47,2.47,0,0,1,1.09.82,3.36,3.36,0,0,1,.6,2.56,6.83,6.83,0,0,1-.89,2.43,9.59,9.59,0,0,1-3.52,3.55,9.46,9.46,0,0,1-9.15.13,10.82,10.82,0,0,1-3.33-2.88,13.76,13.76,0,0,1-2-3.63,23.59,23.59,0,0,1-1.35-7.29c-.13-2.27,0-4.32-.22-6.1a10.38,10.38,0,0,0-.58-2.41,6.81,6.81,0,0,0-1-1.81,5.18,5.18,0,0,0-2.29-1.69,5.77,5.77,0,0,0-1-.24,3.23,3.23,0,0,1,1,.18,5.12,5.12,0,0,1,2.37,1.67,7,7,0,0,1,1.07,1.83,10.21,10.21,0,0,1,.62,2.45c.24,1.8.13,3.86.26,6.11a23.93,23.93,0,0,0,1.38,7.21,14,14,0,0,0,2,3.55,10.47,10.47,0,0,0,3.25,2.79,9.17,9.17,0,0,0,8.85-.14,9.28,9.28,0,0,0,3.4-3.44,6.72,6.72,0,0,0,.85-2.31,3.09,3.09,0,0,0-.53-2.33,2.13,2.13,0,0,0-.95-.71,1.68,1.68,0,0,0-1.15,0,2.5,2.5,0,0,0-1.52,1.72,2.24,2.24,0,0,0,.61,2.15,3.45,3.45,0,0,0,2.1,1,3.55,3.55,0,0,0,2.22-.53,5.29,5.29,0,0,0,1.64-1.59,9,9,0,0,0,1.34-4.27,76,76,0,0,0-.32-15.85,41.91,41.91,0,0,0-1.3-5.95,10.41,10.41,0,0,0-2.08-4,5.68,5.68,0,0,0-2.36-1.62C288.42,160.75,288.06,160.75,288.07,160.72Z"></path> <rect class="cls-3" x="262.69" y="169.66" width="20.53" height="3.91"></rect> <rect class="cls-5" x="108.29" y="210.09" width="26.77" height="57.63"></rect> <path class="cls-8" d="M132.76,261.65a2.17,2.17,0,0,1,0-.24v-.72c0-.64,0-1.56,0-2.76,0-2.41,0-5.9,0-10.29,0-8.79-.05-21.16-.08-35.55l.16.15h-22.4l.16-.16c0,19.25,0,36.74,0,49.56l-.11-.11,16.35.06,4.47,0h1.58l-.39,0h-1.15l-4.44,0-16.42.06h-.12v-.12c0-12.82,0-30.31,0-49.56v-.16h22.72v.15c0,14.43-.06,26.84-.07,35.65,0,4.38,0,7.86-.05,10.26,0,1.18,0,2.09,0,2.73v.69C132.76,261.58,132.76,261.65,132.76,261.65Z"></path> <path class="cls-8" d="M131.37,216.28a4.72,4.72,0,0,1,0-.6c0-.41,0-1,0-1.67l.07.07c-3.46.06-10.89.09-19.47.09h0l.17-.16h0v2.25l-.16-.16c5.45,0,10.29,0,13.8.07l4.14.05,1.13,0,.41,0a1.54,1.54,0,0,1-.36,0l-1.1,0-4.11,0c-3.49,0-8.39.06-13.91.06h-.16V214h0l.16-.16h0c8.58,0,16,0,19.47.09h.08V214c0,.72,0,1.29,0,1.71A3.67,3.67,0,0,1,131.37,216.28Z"></path> <path class="cls-8" d="M113.86,217.92c0,.08-.41.16-.9.16s-.9-.08-.9-.16.4-.16.9-.16S113.86,217.83,113.86,217.92Z"></path> <path class="cls-8" d="M130.85,220.89c0,.09-4.14.16-9.26.16s-9.26-.07-9.26-.16,4.15-.16,9.26-.16S130.85,220.8,130.85,220.89Z"></path> <path class="cls-8" d="M130.93,224.48c0,.09-4.07.16-9.1.16s-9.1-.07-9.1-.16,4.08-.16,9.1-.16S130.93,224.39,130.93,224.48Z"></path> <circle class="cls-7" cx="121.59" cy="232.87" r="1.47"></circle> <path class="cls-8" d="M117.44,232.81a12.21,12.21,0,0,1-3.94,0,12.21,12.21,0,0,1,3.94,0Z"></path> <path class="cls-8" d="M129.4,232.43a11.07,11.07,0,0,1-3.75,0,11.07,11.07,0,0,1,3.75,0Z"></path> <path class="cls-5" d="M109.2,239a5.73,5.73,0,0,1-1-.19,8.68,8.68,0,0,1-2.65-1.23,11.13,11.13,0,0,1-3.19-3.33,18.82,18.82,0,0,1-2.33-5.66,22.64,22.64,0,0,1-.74-7.38,15.11,15.11,0,0,1,2.81-8,12.59,12.59,0,0,1,3.35-3.19,10.82,10.82,0,0,1,4.54-1.64c1.64-.23,3.31-.2,5-.3a12.39,12.39,0,0,0,4.89-1.12,5.5,5.5,0,0,0,3-3.73,5.21,5.21,0,0,0-5.2-6.37,3.76,3.76,0,0,0-2.06.77,2.22,2.22,0,0,0-.86,1.86,3,3,0,0,0,2.75,2.66,4.51,4.51,0,0,0,3.53-1.58,8.39,8.39,0,0,0,1.71-3.36,29.25,29.25,0,0,0,.72-3.46,57.65,57.65,0,0,0,.32-10.7c-.06-1.25-.11-2.23-.14-2.91l0-.76a.86.86,0,0,1,0-.26,1.83,1.83,0,0,1,0,.26l.07.76c0,.66.13,1.64.21,2.91a54.91,54.91,0,0,1-.23,10.73,28.13,28.13,0,0,1-.7,3.5,8.77,8.77,0,0,1-1.75,3.47,4.81,4.81,0,0,1-3.75,1.69,3.28,3.28,0,0,1-3-2.93,2.56,2.56,0,0,1,1-2.12,4,4,0,0,1,2.23-.83,5.54,5.54,0,0,1,4.4,9.07,6.16,6.16,0,0,1-2.07,1.61,12.47,12.47,0,0,1-5,1.16c-1.69.1-3.35.07-4.95.29a12.16,12.16,0,0,0-2.33.55,10.45,10.45,0,0,0-2.09,1,12.29,12.29,0,0,0-3.28,3.1,14.91,14.91,0,0,0-2.79,7.84,22.88,22.88,0,0,0,.7,7.31,19.18,19.18,0,0,0,2.26,5.62,11.42,11.42,0,0,0,3.11,3.32,9.25,9.25,0,0,0,2.6,1.27c.32.09.57.15.73.18S109.21,239,109.2,239Z"></path> <rect class="cls-5" x="100.08" y="120.7" width="63.4" height="43.53"></rect> <rect class="cls-5" x="126.88" y="158.29" width="8.63" height="16.42"></rect> <polygon class="cls-5" points="106.39 174.08 106.39 179.99 139.1 179.99 139.1 268.01 142.11 268.01 142.11 179.99 278.72 180.67 278.72 268.01 281.67 268.01 281.67 180.5 302.75 180.67 302.75 173.57 106.39 174.08"></polygon> <polygon class="cls-5" points="127.32 178.84 140.22 188.13 139.1 189.21 126.1 179.41 127.32 178.84"></polygon> <polygon class="cls-5" points="293.83 179.71 278.86 190.37 279.98 191.44 295.05 180.28 293.83 179.71"></polygon> <rect class="cls-5" x="153.96" y="171.91" width="33.81" height="2.49"></rect> </g> </g> </svg> 